<?xml version="1.0" encoding="UTF-8"?>
<svg id="Layer_1" data-name="Layer 1" xmlns="http://www.w3.org/2000/svg" viewBox="0 0 528.84 145.33">
  <path d="M98.5,62.37c8.08-3.43,11.91-10.5,11.91-21.8v-9.69c0-21.19-12.31-30.88-38.75-30.88H7.27C2.22,0,0,2.22,0,7.27v130.79c0,5.05,2.22,7.27,7.27,7.27h77.51c26.84,0,39.15-10.5,39.15-33.1v-18.57c0-19.78-8.07-29.68-25.43-31.29ZM37.1,110.33c0,1.93-1.57,3.5-3.5,3.5s-3.5-1.57-3.5-3.5v-58.59c0-1.93,1.56-3.5,3.5-3.5s3.5,1.57,3.5,3.5v58.59ZM53.96,110.33c0,1.93-1.56,3.5-3.5,3.5s-3.5-1.57-3.5-3.5V35c0-1.94,1.57-3.5,3.5-3.5s3.5,1.56,3.5,3.5v75.33ZM70.43,110.33c0,1.93-1.57,3.5-3.5,3.5s-3.5-1.57-3.5-3.5v-58.59c0-1.93,1.57-3.5,3.5-3.5s3.5,1.57,3.5,3.5v58.59ZM87.1,110.33c0,1.93-1.57,3.5-3.5,3.5s-3.5-1.57-3.5-3.5v-27.91c0-1.93,1.56-3.5,3.5-3.5s3.5,1.57,3.5,3.5v27.91Z"/>
  <path d="M247.27,38.15c5.04,0,7.26-2.22,7.26-7.27V7.27c0-5.05-2.22-7.27-7.26-7.27h-93.66c-5.04,0-7.26,2.22-7.26,7.27v130.79c0,5.04,2.22,7.26,7.26,7.26h93.66c5.04,0,7.26-2.22,7.26-7.26v-23.62c0-5.04-2.22-7.26-7.26-7.26h-55.71v-17.36h39.36c5.04,0,7.26-2.22,7.26-7.27v-21.59c0-5.05-2.22-7.27-7.26-7.27h-39.36v-15.54h55.71Z"/>
  <path d="M381.09,106.77h-48.24l46.83-56.71c3.63-3.84,5.04-7.27,5.04-12.72V7.27c0-5.05-2.22-7.27-7.26-7.27h-92.85c-5.05,0-7.27,2.22-7.27,7.27v24.42c0,5.04,2.22,7.26,7.27,7.26h43.19l-49.04,59.55c-3.64,3.83-5.05,7.26-5.05,12.51v27.05c0,5.04,2.22,7.26,7.27,7.26h100.11c5.05,0,7.27-2.22,7.27-7.26v-24.02c0-5.05-2.22-7.27-7.27-7.27Z"/>
  <path d="M528.84,7.27v38.75c0,12.51-1.62,16.55-7.67,24.83l-30.68,41.57v25.64c0,5.04-2.22,7.26-7.27,7.26h-32.7c-5.25,0-7.26-2.22-7.26-7.26v-25.84l-30.89-41.37c-6.25-8.28-7.67-12.32-7.67-24.83V7.27c0-5.05,2.22-7.27,7.27-7.27h26.3v43.25c0,1.93,1.57,3.5,3.5,3.5s3.5-1.57,3.5-3.5V0h9.67v64.15c0,1.93,1.57,3.5,3.5,3.5s3.5-1.57,3.5-3.5V0h9.67v64.15c0,1.93,1.56,3.5,3.5,3.5s3.5-1.57,3.5-3.5V0h9.66v43.25c0,1.93,1.57,3.5,3.5,3.5s3.5-1.57,3.5-3.5V0h26.3c5.05,0,7.27,2.22,7.27,7.27Z"/>
</svg>