<?xml version="1.0" encoding="UTF-8"?>
<svg id="Layer_1" data-name="Layer 1" xmlns="http://www.w3.org/2000/svg" width="500" height="500" viewBox="0 0 500 500">
  <path d="M237.42.47c130.03-9.56,219.51,129.39,155.82,243.92-61.94,111.38-223.86,111.65-286.26.72C48.09,140.44,118.21,9.23,237.42.47ZM331.7,181.53c15.4,15.4,38.75-9.59,21.96-23.63-16.1-13.47-35.92,9.67-21.96,23.63ZM317.56,195.68c-15.4-15.4-38.75,9.59-21.96,23.63,16.1,13.47,35.92-9.67,21.96-23.63ZM348.86,202.25c-15.16,3.15-15.29,29.75,3.04,31.03,25,1.74,22.87-36.41-3.04-31.03ZM264.1,229.01c-15.36,3.19-14.82,29.35,3.1,30.97,24.58,2.22,23.12-36.42-3.1-30.97ZM313.18,239.05c-22.14,4.02-12.37,40.61,10.78,29.72,16.04-7.55,8.07-33.15-10.78-29.72Z"/>
  <path d="M388.94,362.2c-3.06,3.11-16.58,10.4-21.18,12.83-22.06,11.65-45.74,18.78-69.84,24.95-15.03,20.3-25.09,43.66-32.69,67.68-2.12,6.7-5.57,28.08-10.42,30.83-14.96,8.49-17.2-21.3-20.21-30.83-7.59-24.09-17.45-47.38-32.69-67.68-22.88-6.14-45.68-12.75-66.88-23.45-5.13-2.59-20.74-10.88-24.14-14.34-13.04-13.24.55-35.56,20.86-25.88,9.21,4.39,18.28,10.95,28.2,15.29,57.12,24.97,123.7,24.83,180.7-.35,9.03-3.99,30.15-18.17,38.03-17.73,14.14.79,20.13,18.65,10.26,28.67Z"/>
</svg>