<?xml version="1.0" encoding="UTF-8"?>
<svg id="Layer_1" xmlns="http://www.w3.org/2000/svg" viewBox="0 0 500 500">
  <path d="M298.1,351.1c0,26.79.03,53.59,0,80.38-.06,40.21-28.33,68.47-68.54,68.49-53.58.03-107.16.03-160.74,0-40.22-.02-68.59-28.26-68.64-68.43-.07-53.78-.07-107.55,0-161.33.06-39.82,28.39-68.13,68.29-68.2,53.76-.09,107.53-.09,161.3,0,40.19.07,68.27,28.38,68.32,68.7.03,26.79,0,53.59,0,80.38ZM172.99,351.8c.47-12.93-9.9-24.09-22.89-24.64-13.14-.56-24.43,10.05-24.82,23.3-.37,12.82,10.19,23.94,23.2,24.41,12.8.46,24.04-10.11,24.51-23.06ZM89.4,434.32c13.18.07,23.86-10.42,23.99-23.57.13-13.09-10.48-23.86-23.62-23.98-13.14-.12-23.86,10.46-23.93,23.61-.07,13.22,10.41,23.87,23.56,23.94ZM89.71,315.13c13.22-.06,23.76-10.67,23.68-23.83-.08-13.21-10.64-23.61-23.93-23.57-13.24.04-23.66,10.55-23.62,23.81.04,13.17,10.64,23.65,23.87,23.59ZM232.41,410.61c.01-13.25-10.46-23.81-23.65-23.84-13.18-.03-23.72,10.51-23.75,23.74-.03,13.23,10.46,23.79,23.66,23.8,13.2.02,23.73-10.5,23.75-23.71ZM232.41,291.54c.05-13.31-10.3-23.76-23.58-23.81-13.31-.05-23.77,10.3-23.83,23.57-.06,13.3,10.3,23.77,23.58,23.83,13.28.06,23.78-10.33,23.82-23.59Z"/>
  <path d="M167.45,178.3c4.26-11.85,8.26-22.99,12.27-34.13,11.83-32.86,23.61-65.75,35.52-98.58C224.91,18.93,243.87,3.79,272.06.37c10.4-1.26,20.35.87,30.07,4.36,50.52,18.16,101.04,36.29,151.53,54.54,29.19,10.55,47.03,34.72,46.18,63.54-.24,8.02-2.05,16.3-4.73,23.9-17.88,50.63-36.13,101.13-54.38,151.63-13.54,37.45-48.18,54.3-86.01,41.96-9.54-3.11-18.95-6.61-28.56-9.46-3.64-1.08-4.47-2.82-4.44-6.3.15-18.43.12-36.85.06-55.28-.17-51.69-38.39-90.32-90.07-90.91-19.17-.22-38.34-.04-57.5-.04-1.99,0-3.98,0-6.75,0ZM327.68,148.44c-12.95.08-23.75,10.93-23.73,23.86.02,12.92,10.85,23.81,23.76,23.87,13.15.06,24.16-11.03,23.98-24.17-.18-13-11.02-23.63-24-23.55ZM387.49,248.26c-.12-13.02-11.13-23.85-24.05-23.65-13.01.2-23.81,11.25-23.6,24.15.21,13.11,11.04,23.69,24.11,23.56,13.09-.13,23.67-10.94,23.54-24.07ZM292.21,72.32c-13.21-.1-23.96,10.36-24.12,23.47-.16,13.07,10.44,23.85,23.59,23.99,13.15.14,23.96-10.38,24.14-23.47.18-13.05-10.49-23.89-23.62-23.99Z"/>
</svg>