<?xml version="1.0" encoding="UTF-8"?>
<svg id="Layer_1" xmlns="http://www.w3.org/2000/svg" viewBox="0 0 500 500">
  <path d="M0,166.02c0-4.23,0-8.46,0-12.7.21-.23.56-.44.62-.71,3.97-17.59,15.24-27.28,32.43-31.81,59.52-15.67,118.95-31.73,178.39-47.73,23.95-6.45,44.18,4.89,50.65,28.97,26.61,98.98,53.14,197.97,79.63,296.98,6.44,24.07-5.04,44.12-29.09,50.63-46.72,12.65-93.5,25.07-140.24,37.63-15.49,4.16-30.94,8.47-46.41,12.71h-12.7c-.38-.27-.72-.7-1.14-.8-16.76-3.87-26.52-14.58-30.88-30.94-22.85-85.63-45.78-171.24-68.72-256.85C8.47,196.25,4.18,181.14,0,166.02ZM113.64,299.43c1.55,2.2,3.07,5.5,5.56,7.71,20.88,18.62,41.93,37.05,62.95,55.51,8.35,7.34,15.74,5.37,19.31-5.14,8.93-26.29,17.73-52.63,26.79-78.87,2.14-6.21.98-10.84-3.99-15.16-20.86-18.15-41.54-36.51-62.33-54.74-8.84-7.75-16.14-5.79-19.89,5.27-8.86,26.14-17.69,52.3-26.5,78.46-.62,1.83-1.02,3.74-1.89,6.97Z"/>
  <path d="M500,78.13c-2.26,11.94-4.65,23.86-6.77,35.83-10.69,60.33-21.31,120.67-31.96,181.01-5.28,29.93-10.54,59.86-15.85,89.79-3.98,22.41-21.57,35.81-44.1,33.19-9.34-1.09-18.58-3.11-27.05-4.57-9.07-46.16-23.44-90.38-34.78-135.36-.92-3.65-.33-5.46,2.74-7.53,22.16-14.94,42.13-32.21,56.64-55.03,6.16-9.69,10.74-20.05,12.47-31.5,2.3-15.22-5.02-29.68-18.48-36.64-13.64-7.05-29.85-4.55-40.97,6.38-.9.89-1.49,2.1-2.37,3.37-13.23-22.7-22.36-26.86-48.3-22.29-3.08-11.5-6.46-22.99-9.21-34.62-4.17-17.62-11.84-32.97-26.56-44.19-9.64-7.35-20.48-11.81-32.39-13.53,0-21.21,11.57-35.27,27.59-40.54,1.98-.65,3.97-1.26,5.96-1.89C270.51,0,274.41,0,278.32,0c.42.23.81.61,1.26.68,28.32,5,56.65,9.95,84.98,14.95,34.72,6.13,69.48,12.06,104.14,18.57,16.05,3.01,25.86,13.44,30.26,29.04.3,1.07.7,2.1,1.05,3.16v11.72Z"/>
</svg>