<?xml version="1.0" encoding="UTF-8"?>
<svg id="Layer_1" xmlns="http://www.w3.org/2000/svg" viewBox="0 0 1417.32 1417.32">
  <path d="M333.85,516.33c39.6,49.71,88.29,84.6,142.64,112.5,4.79-31.07,8.26-61.29,14.28-90.98,13.21-65.14,41.6-124.03,77.1-179.76,17.13-26.89,34.2-53.81,50.96-80.93,45.72-74.02,50.55-151.85,21.18-232.74C634.99,30.58,629.84,16.79,623.64,0c7.43,2.67,12.86,4.21,17.95,6.52,155.99,70.79,268.49,185.67,341.71,339.47,52.28,109.8,74.4,226.76,77.74,347.67.93,33.73,25.49,51.78,56.75,38.04,17.72-7.79,34.47-20.02,48.46-33.55,19.12-18.5,35.18-40.15,54.15-62.31,3.87,19.24,7.86,37.42,11.15,55.72,19.65,109.08,26.33,218.47,4.17,327.98-30.22,149.32-106.34,266.24-243.13,339.39-48.49,25.93-100.4,41.94-154.33,51.75-1.68.31-3.47.04-7.91.04,16.91-7.07,31.67-12.34,45.63-19.23,73.95-36.49,128.46-90.2,147.41-173.13,15.22-66.59.58-129.59-29.27-189.26-14.95-29.89-33.45-57.99-51.2-88.36-22.87,27.62-47.81,45.99-77.29,61.17-2-14.35-3.36-27-5.58-39.5-6.87-38.84-23.37-73.69-44.37-106.75-11.63-18.31-23.34-36.67-33.34-55.88-18.25-35.07-15.71-71.36-3.27-107.66,2.34-6.84,4.94-13.59,7.42-20.38-.81-1.07-1.62-2.15-2.43-3.22-17.44,9.6-35.58,18.14-52.21,28.99-94.1,61.37-147.23,149.74-167.21,258.86-4.89,26.7-6.21,54.09-8.5,81.22-1.36,16.17-13.65,26.19-28.43,18.97-12.89-6.29-24.13-16.49-35.03-26.17-7.36-6.54-12.86-15.17-23.08-22.6-4.11,31.8-9.38,63.51-12.06,95.43-4.35,51.66.72,102.62,18.84,151.51,29.7,80.11,86.78,131.27,168.05,156.13,3.97,1.21,8.01,2.2,12,3.34.39.11.71.48.75,3.13-18.46-3-37.05-5.33-55.35-9.11-115.25-23.8-218.52-71.86-302.36-155.8-112.83-112.97-151.46-249.7-122.45-405.56,22.91-123.07,82.57-229.25,156.83-330.53Z"/>
</svg>