<?xml version="1.0" encoding="UTF-8"?>
<svg xmlns="http://www.w3.org/2000/svg" version="1.1" viewBox="0 0 1417.3 1417.3">
  <!-- Generator: Adobe Illustrator 28.7.4, SVG Export Plug-In . SVG Version: 1.2.0 Build 166)  -->
  <g>
    <g id="Layer_1">
      <path d="M410.7,612.6c16.2,69.2,47.6,124.9,121.9,148C463.4,464.8,534.3,210.9,751.6,0c1.9.1,3.7.3,5.6.4,0,24.9-.7,49.9.1,74.8,2.7,76,11.2,151.3,29.9,225.3,24.7,97.6,74.1,181.1,143.2,253.6,46.2,48.5,93.9,95.5,138,145.9,73.8,84.2,114.5,181.7,107.6,295.6-4.9,80.5-35.4,151.8-82.5,216.4-64.8,89-150.4,153.2-246.5,204.7-.7.4-1.7.1-4.8.3,71.7-110,73.5-223.1,19.4-339.1-10.8,23.2-19.9,46.4-32,68-12.6,22.4-31.7,38.5-58.9,48.2,44.1-146.1-16.1-261.8-102.6-370.5-1.6,21.6-2.5,43.2-4.8,64.7-7.1,67.2-22,132.2-60.1,189.3-13.6,20.4-30.8,38.5-47.2,56.8-26.1,29.2-46,61.4-52.5,100.8-7.5,45.9,5.1,87.5,27.6,126.7,10.2,17.9,22.4,34.7,36.1,55.5-22.7-13.2-42.5-24-61.6-35.9-69-42.8-132.7-92-183-156.5-89.9-115-102.7-241.2-53.5-376,31.2-85.7,80.4-160.9,136.5-232,1.1-1.3,2.6-2.3,5.2-4.5Z"/>
    </g>
  </g>
</svg>