<?xml version="1.0" encoding="UTF-8"?>
<svg xmlns="http://www.w3.org/2000/svg" version="1.1" viewBox="0 0 1417.3 1417.3">
  <!-- Generator: Adobe Illustrator 28.7.4, SVG Export Plug-In . SVG Version: 1.2.0 Build 166)  -->
  <g>
    <g id="Layer_1">
      <path d="M333.9,516.3c39.6,49.7,88.3,84.6,142.6,112.5,4.8-31.1,8.3-61.3,14.3-91,13.2-65.1,41.6-124,77.1-179.8,17.1-26.9,34.2-53.8,51-80.9,45.7-74,50.5-151.9,21.2-232.7C635,30.6,629.8,16.8,623.6,0c7.4,2.7,12.9,4.2,18,6.5,156,70.8,268.5,185.7,341.7,339.5,52.3,109.8,74.4,226.8,77.7,347.7.9,33.7,25.5,51.8,56.8,38,17.7-7.8,34.5-20,48.5-33.5,19.1-18.5,35.2-40.2,54.2-62.3,3.9,19.2,7.9,37.4,11.2,55.7,19.7,109.1,26.3,218.5,4.2,328-30.2,149.3-106.3,266.2-243.1,339.4-48.5,25.9-100.4,41.9-154.3,51.8-1.7.3-3.5,0-7.9,0,16.9-7.1,31.7-12.3,45.6-19.2,74-36.5,128.5-90.2,147.4-173.1,15.2-66.6.6-129.6-29.3-189.3-15-29.9-33.5-58-51.2-88.4-22.9,27.6-47.8,46-77.3,61.2-2-14.3-3.4-27-5.6-39.5-6.9-38.8-23.4-73.7-44.4-106.8-11.6-18.3-23.3-36.7-33.3-55.9-18.2-35.1-15.7-71.4-3.3-107.7,2.3-6.8,4.9-13.6,7.4-20.4-.8-1.1-1.6-2.2-2.4-3.2-17.4,9.6-35.6,18.1-52.2,29-94.1,61.4-147.2,149.7-167.2,258.9-4.9,26.7-6.2,54.1-8.5,81.2-1.4,16.2-13.7,26.2-28.4,19-12.9-6.3-24.1-16.5-35-26.2-7.4-6.5-12.9-15.2-23.1-22.6-4.1,31.8-9.4,63.5-12.1,95.4-4.4,51.7.7,102.6,18.8,151.5,29.7,80.1,86.8,131.3,168.1,156.1,4,1.2,8,2.2,12,3.3.4.1.7.5.8,3.1-18.5-3-37-5.3-55.3-9.1-115.2-23.8-218.5-71.9-302.4-155.8-112.8-113-151.5-249.7-122.4-405.6,22.9-123.1,82.6-229.2,156.8-330.5h0Z"/>
    </g>
  </g>
</svg>