<?xml version="1.0" encoding="UTF-8"?>
<svg id="Layer_1" data-name="Layer 1" xmlns="http://www.w3.org/2000/svg" viewBox="0 0 500 500">
  <path d="M326.54-.08h-153c-19.8,0-36,16.2-36,36v153c0,19.8,16.2,36,36,36h153c19.8,0,36-16.2,36-36V35.92C362.54,16.12,346.34-.08,326.54-.08ZM250.04,148.76c-20.07,0-36.34-16.27-36.34-36.34s16.27-36.34,36.34-36.34,36.34,16.27,36.34,36.34-16.27,36.34-36.34,36.34Z"/>
  <path d="M464,275h-153c-19.8,0-36,16.2-36,36v153c0,19.8,16.2,36,36,36h153c19.8,0,36-16.2,36-36v-153c0-19.8-16.2-36-36-36ZM387.5,423.84c-20.07,0-36.34-16.27-36.34-36.34s16.27-36.34,36.34-36.34,36.34,16.27,36.34,36.34-16.27,36.34-36.34,36.34Z"/>
  <path d="M189,275H36c-19.8,0-36,16.2-36,36v153c0,19.8,16.2,36,36,36h153c19.8,0,36-16.2,36-36v-153c0-19.8-16.2-36-36-36ZM112.5,423.84c-20.07,0-36.34-16.27-36.34-36.34s16.27-36.34,36.34-36.34,36.34,16.27,36.34,36.34-16.27,36.34-36.34,36.34Z"/>
</svg>