<?xml version="1.0" encoding="UTF-8"?>
<svg id="Layer_1" data-name="Layer 1" xmlns="http://www.w3.org/2000/svg" viewBox="0 0 500 500">
  <defs>
    <style>
      .cls-1 {
        fill: #fff;
      }
    </style>
  </defs>
  <path d="M455.19,331.1c-6.14-36.56-22.53-68.62-44.28-98.19-22.07-30.01-48.2-56.43-74.09-83.04-1.36-1.4-4.14-2-6.27-2.01-26.71-.13-53.43-.08-80.15-.08s-53.77-.06-80.65.09c-2.27.01-5.27.69-6.68,2.21-22.07,23.96-44.62,47.52-65.65,72.38-21.63,25.56-38.18,54.38-47.5,86.85-7.67,26.76-11.13,54.05-6.1,81.67,6.57,36.1,28.33,61.21,59.74,78.59,31.75,17.56,66.49,24.72,102.13,28.22,35.24,3.46,70.47,2.89,105.57-1.95,27.56-3.8,54.39-10.33,79.4-22.96,28.97-14.62,51.19-35.59,61.82-67.05,8.3-24.59,6.93-49.68,2.71-74.73ZM278.05,384.36c-2.14,1.29-4.41,2.84-6.79,3.2-5.74.87-6.32,4.3-6.23,9.2.17,9.31-6.54,15.91-15.29,15.76-8.51-.13-15.12-6.71-14.67-15.77.27-5.55-1.87-7.61-6.72-9.49-19.23-7.48-31.75-25.06-31.81-43.73-.04-8.8,5.86-15.45,14.14-15.96,8.15-.5,15.03,5.59,16.02,14.18,1.2,10.44,6.97,16.89,17.01,19.02,10.97,2.33,22.29-1.75,27.18-9.81,5.67-9.34,2.32-19.81-7.99-23.15-7.95-2.58-16.23-4.16-24.36-6.21-2.76-.7-5.54-1.35-8.25-2.23-20.98-6.81-32.33-20.11-33.64-39.32-1.44-21.12,8.83-39.03,27.82-48.34.62-.3,1.24-.59,1.87-.87,1.04-.47,2.1-.92,3.17-1.35.42-.18.85-.35,1.27-.52.43-.18.86-.35,1.29-.52.85-.35,1.7-.69,2.55-1.05.02-.26.04-.52.07-.77.01-.26.04-.51.07-.76.04-.5.1-.98.16-1.45.05-.48.11-.94.18-1.4.13-.91.26-1.78.41-2.61.12-.73.26-1.43.42-2.1.07-.34.15-.67.23-.99.04-.16.08-.32.12-.48.19-.73.39-1.43.62-2.09.05-.17.1-.33.16-.48.02-.06.04-.12.07-.18.03-.11.07-.21.11-.31.2-.54.41-1.05.64-1.54.07-.16.15-.32.23-.47.15-.32.31-.62.48-.91.12-.22.25-.43.38-.63.12-.18.24-.36.36-.54.05-.06.09-.13.15-.2.11-.15.22-.3.33-.44.28-.35.57-.68.88-.99.36-.36.73-.68,1.12-.98.39-.3.8-.56,1.23-.8.12-.07.25-.14.37-.19.12-.07.25-.13.37-.18.16-.08.32-.15.49-.21.13-.06.26-.11.4-.15.36-.14.73-.26,1.12-.35.14-.04.29-.07.43-.1.29-.07.58-.12.89-.17.12-.03.24-.04.37-.06.19-.02.39-.05.59-.06.1-.02.2-.03.3-.03.14-.02.29-.03.44-.03.06-.01.13-.01.19-.01.1-.01.21-.01.31-.01.23-.02.46-.02.69-.02,9.74,0,13.94,6.16,15.34,21.64,7.15,4.16,14.28,7.36,20.28,12.02,11.45,8.89,17.58,20.98,17.84,35.67.16,8.66-6.02,15.29-14.34,15.79-8.04.49-14.96-5.82-15.82-14.41-1.06-10.59-7.54-17.25-18.67-19.19-10.8-1.89-22.24,3.19-26.31,11.67-4.53,9.42-1.05,18.44,8.95,21.72,7.15,2.34,14.59,3.77,21.9,5.63,3.41.86,6.85,1.65,10.22,2.67,19.27,5.84,31.87,17.8,33.85,38.58,2.03,21.25-7.13,37.01-25.19,47.86Z"/>
  <path d="M249.73,117.53c-23.34,0-46.68-.08-70.03.09-3.54.03-5.37-1.19-7-4.22-14.59-27.19-29.35-54.29-44.01-81.44-6.21-11.49-2.37-20.68,9.99-24.65,31.14-9.99,62.49-8.87,93.97-1.99,18.67,4.08,37.27,8.55,56.04,12.05,21.48,4.01,42.43,1.77,62.41-7.66,7.84-3.7,14.53-2.59,19.34,2.72,4.64,5.13,5.09,11.78,1.11,19.15-14.84,27.44-29.77,54.83-44.52,82.31-1.5,2.79-3.2,3.7-6.27,3.69-23.68-.11-47.36-.06-71.03-.06Z"/>
  <path class="cls-1" d="M234.61,227.39c.02-.26.05-.51.08-.76-.03.25-.05.51-.07.77-.85.36-1.7.7-2.55,1.05.85-.35,1.7-.7,2.54-1.06Z"/>
  <path class="cls-1" d="M235.1,223.02c.12-.91.26-1.78.41-2.61-.15.83-.28,1.7-.41,2.61Z"/>
  <path class="cls-1" d="M240.69,208.06c.35-.36.73-.69,1.12-.98-.39.3-.76.62-1.12.98Z"/>
  <path class="cls-1" d="M241.81,207.08c.39-.3.8-.57,1.23-.8-.43.24-.84.5-1.23.8Z"/>
</svg>