<?xml version="1.0" encoding="UTF-8"?>
<svg id="Layer_1" data-name="Layer 1" xmlns="http://www.w3.org/2000/svg" viewBox="0 0 500 500">
  <path d="M482.23,255.92h-40.71v226.99c0,9.44-8.17,17.09-18.24,17.09h-104.72c-10.07,0-18.24-7.65-18.24-17.09v-128.64c0-5.04-4.36-9.13-9.74-9.13h-81.22c-5.38,0-9.74,4.09-9.74,9.13v128.64c0,9.44-8.17,17.09-18.24,17.09h-104.72c-10.07,0-18.24-7.65-18.24-17.09v-226.99H17.77c-15.6,0-23.6-17.51-12.83-28.09L227.99,8.81c11.97-11.75,31.99-11.75,43.95,0l50.26,49.34v-20.71c0-5.07,4.39-9.19,9.8-9.19h86.56c5.41,0,9.8,4.11,9.8,9.19v124.93l66.68,65.46c10.77,10.58,2.77,28.09-12.83,28.09Z"/>
</svg>