<?xml version="1.0" encoding="UTF-8"?>
<svg id="Layer_1" data-name="Layer 1" xmlns="http://www.w3.org/2000/svg" viewBox="0 0 500 500">
  <path d="M235.66,258.89L40.02,145.93c-5.43-3.13-12.22.79-12.22,7.06v225.9c0,2.91,1.56,5.6,4.08,7.05l195.64,112.96c5.43,3.13,12.22-.79,12.22-7.06v-225.9c0-2.91-1.56-5.6-4.08-7.05ZM89.27,286c-13.03,0-23.6-13.64-23.6-30.47s10.57-30.48,23.6-30.48,23.61,13.64,23.61,30.48-10.57,30.47-23.61,30.47ZM174.45,414.29c-13.03,0-23.6-13.65-23.6-30.48s10.57-30.48,23.6-30.48,23.61,13.65,23.61,30.48-10.57,30.48-23.61,30.48Z"/>
  <path d="M449.71,114.05L254.07,1.09c-2.52-1.45-5.62-1.45-8.14,0L50.29,114.05c-5.44,3.13-5.44,10.97,0,14.11l195.64,112.94c2.52,1.46,5.62,1.46,8.14,0l195.64-112.94c5.44-3.14,5.44-10.98,0-14.11ZM250,150.63c-16.83,0-30.48-10.57-30.48-23.61s13.65-23.6,30.48-23.6,30.48,10.57,30.48,23.6-13.65,23.61-30.48,23.61Z"/>
  <path d="M459.98,145.93l-195.64,112.96c-2.52,1.45-4.08,4.14-4.08,7.05v225.9c0,6.27,6.79,10.19,12.22,7.06l195.64-112.96c2.52-1.45,4.08-4.14,4.08-7.05v-225.9c0-6.27-6.79-10.19-12.22-7.06ZM325.92,420.49c-13.04,0-23.61-13.64-23.61-30.48s10.57-30.48,23.61-30.48,23.6,13.65,23.6,30.48-10.56,30.48-23.6,30.48ZM373.64,351.22c-13.04,0-23.6-13.65-23.6-30.48s10.56-30.48,23.6-30.48,23.6,13.65,23.6,30.48-10.56,30.48-23.6,30.48ZM417.26,281.94c-13.04,0-23.61-13.64-23.61-30.47s10.57-30.48,23.61-30.48,23.6,13.64,23.6,30.48-10.57,30.47-23.6,30.47Z"/>
</svg>