<?xml version="1.0" encoding="UTF-8"?>
<svg id="Layer_1" data-name="Layer 1" xmlns="http://www.w3.org/2000/svg" viewBox="0 0 500 500">
  <defs>
    <style>
      .cls-1 {
        fill: #fff;
      }
    </style>
  </defs>
  <path d="M471.16,133.34c-12.12,12.12-24.01,23.97-35.91,35.59-4.14,4.02-10.17,6.69-16.58,7.44,9.86,22.55,15.33,47.45,15.33,73.63,0,101.62-82.38,184-184,184s-184-82.38-184-184S148.38,66,250,66c24.91,0,48.66,4.95,70.33,13.92.46-6.99,3.62-14.18,8.36-19.02,11.22-11.49,22.76-22.98,33.95-34.14C328.79,9.64,290.52,0,250,0,111.93,0,0,111.93,0,250s111.93,250,250,250,250-111.93,250-250c0-42.13-10.42-81.83-28.84-116.66ZM358.03,195.45c-13.43,13.45-26.89,26.88-40.35,40.32l-1.04,1.03c-2.32,2.31-4.64,4.63-6.96,6.95.21,2.06.32,4.14.32,6.25,0,33.14-26.86,60-60,60s-60-26.86-60-60,26.82-59.96,59.93-60l8.64-8.63c13.85-13.83,27.72-27.68,41.61-41.5-15.28-6.98-32.27-10.87-50.18-10.87-66.83,0-121,54.17-121,121s54.17,121,121,121,121-54.17,121-121c0-19.63-4.67-38.16-12.97-54.55ZM358.03,195.45c-13.43,13.45-26.89,26.88-40.35,40.32l-1.04,1.03c-2.32,2.31-4.64,4.63-6.96,6.95.21,2.06.32,4.14.32,6.25,0,33.14-26.86,60-60,60s-60-26.86-60-60,26.82-59.96,59.93-60l8.64-8.63c13.85-13.83,27.72-27.68,41.61-41.5-15.28-6.98-32.27-10.87-50.18-10.87-66.83,0-121,54.17-121,121s54.17,121,121,121,121-54.17,121-121c0-19.63-4.67-38.16-12.97-54.55Z"/>
  <path class="cls-1" d="M371,250c0,66.83-54.17,121-121,121s-121-54.17-121-121,54.17-121,121-121c17.91,0,34.9,3.89,50.18,10.87-13.89,13.82-27.76,27.67-41.61,41.5l-8.64,8.63c-33.11.04-59.93,26.88-59.93,60s26.86,60,60,60,60-26.86,60-60c0-2.11-.11-4.19-.32-6.25,2.32-2.32,4.64-4.64,6.96-6.95l1.04-1.03c13.46-13.44,26.92-26.87,40.35-40.32,8.3,16.39,12.97,34.92,12.97,54.55Z"/>
  <path d="M371,250c0,66.83-54.17,121-121,121s-121-54.17-121-121,54.17-121,121-121c17.91,0,34.9,3.89,50.18,10.87-13.89,13.82-27.76,27.67-41.61,41.5l-8.64,8.63c-33.11.04-59.93,26.88-59.93,60s26.86,60,60,60,60-26.86,60-60c0-2.11-.11-4.19-.32-6.25,2.32-2.32,4.64-4.64,6.96-6.95l1.04-1.03c13.46-13.44,26.92-26.87,40.35-40.32,8.3,16.39,12.97,34.92,12.97,54.55Z"/>
  <path d="M472.84,106.9c-3.57,3.57-7.15,7.15-10.72,10.73-12.97,12.98-25.95,25.95-39.09,38.77-1.79,1.74-5.11,2.63-7.74,2.68-6.38.12-12.76.17-19.15.18-7.37.01-14.74-.04-22.11-.13-3.13-.04-5.31.86-7.51,3.07-5.93,5.94-11.86,11.88-17.8,17.82-14.8,14.81-29.62,29.6-44.44,44.39-9.7,9.68-19.4,19.37-29.09,29.06-6.18,6.17-13.31,9.32-22.11,7.41-16.84-3.65-23.59-23.34-12.57-36.57,1.16-1.39,2.47-2.65,3.76-3.93,8.89-8.87,17.77-17.75,26.66-26.62,15.06-15.04,30.13-30.08,45.22-45.09,6.09-6.06,12.18-12.11,18.27-18.16,2.34-2.32,3.3-4.59,3.26-7.88-.09-6.91-.16-13.82-.16-20.73s.07-13.64.24-20.45c.08-2.83,1.46-6.29,3.43-8.3,12.35-12.64,24.89-25.11,37.41-37.58,3.52-3.52,7.04-7.03,10.56-10.55,2.61-2.61,5.39-4.49,9.24-2.85,3.78,1.61,4.58,4.79,4.56,8.54-.06,7.03-.05,14.05-.04,21.5,0,3.19.01,6.46.01,9.84,1.81-1.99,3.62-3.85,5.47-5.48,5.33-4.69,11.08-7.58,18.52-6.77,5.59.61,10.45,2.89,14.33,7.04,8.21,8.78,8.13,18.02-1.01,30.96-1.39,1.97-3,4.04-4.82,6.2h13.85c6.05,0,12.09.02,18.14,0,3.52-.02,6.15,1.35,7.52,4.69,1.33,3.23.2,5.92-2.09,8.21Z"/>
</svg>