<?xml version="1.0" encoding="UTF-8"?>
<svg id="Layer_1" xmlns="http://www.w3.org/2000/svg" viewBox="0 0 240.94 297.64">
  <g>
    <g>
      <rect y="0" width="45.29" height="113.39"/>
      <path d="M97.3,55.98c10.72,4.39,16.08,12.24,16.08,23.56,0,10.38-3.68,18.55-11.02,24.48-7.69,6.22-18.61,9.33-32.74,9.33h-9.69V.03h8.43c13.8,0,24.35,3.41,31.65,10.24,6.67,6.22,10.02,14.28,10.02,24.19s-4.15,17.09-12.46,21.52c0,0-.26,0-.26,0Z"/>
    </g>
    <g>
      <path d="M207.92,51.46v10.6c0,3.01-2.6,5.45-5.84,5.45h-29.24v45.88h-45.29V0h45.29v46.01h29.24c3.23,0,5.84,2.45,5.84,5.45Z"/>
      <path d="M188.02,0h52.93v31.7c0,2.1-1.71,3.8-3.8,3.8h-16.74c-17.88,0-32.38-14.51-32.38-32.38V0Z"/>
      <path d="M188.03,110.27c0-17.87,14.5-32.38,32.38-32.38h16.74c2.09,0,3.8,1.7,3.8,3.8v31.7h-52.92v-3.12Z"/>
    </g>
  </g>
  <g>
    <g>
      <path d="M59.25,240.94l41.63-41.63c4.61-4.61,12.51-1.35,12.51,5.18v36.45h-54.14Z"/>
      <path d="M54.14,127.56l-41.63,41.63C7.9,173.8,0,170.54,0,164.01v-36.45h54.14Z"/>
      <g>
        <path d="M87.44,127.56L0,215h0c0-7.13,2.83-13.97,7.88-19.02l60.54-60.55c5.04-5.05,11.89-7.88,19.02-7.88h0Z"/>
        <path d="M113.39,153.49v.02c0,7.13-2.83,13.98-7.88,19.02l-60.55,60.54c-5.04,5.04-11.89,7.88-19.02,7.88h0l87.44-87.45Z"/>
        <polygon points="113.39 132.49 113.39 143.63 16.08 240.94 4.93 240.94 113.39 132.49"/>
        <polygon points="108.46 127.56 0 236.01 0 224.86 97.32 127.56 108.46 127.56"/>
      </g>
    </g>
    <g>
      <path d="M176.89,240.94h-12.4c-20.4,0-36.93-16.53-36.93-36.92v-76.46h49.33v113.39Z"/>
      <path d="M191.64,297.64h0c27.22,0,49.3-22.08,49.3-49.3v-120.75h-49.3v170.05Z"/>
    </g>
  </g>
  <g>
    <path d="M25.25,286.44c0,2.09,0,5.59-9.85,5.59s-9.79-3.37-9.79-5.59v-29.41H0v29.41c0,11.2,11.59,11.2,15.4,11.2s15.46,0,15.46-11.2v-29.41h-5.61v29.41Z"/>
    <path d="M70.06,274.23l7.44-17.2h-6.12l-7.44,17.18h-9.9v-17.18h-5.6v39.84h5.6v-17.05h14.89c4.69,0,4.69,1.55,4.69,3.19v13.86h5.61v-13.86c0-5.51-3.09-8.47-9.18-8.78h0Z"/>
    <polygon points="96.62 296.87 123.35 296.87 123.35 291.26 102.23 291.26 102.23 279.5 118.12 279.5 118.12 273.88 102.23 273.88 102.23 262.64 123.35 262.64 123.35 257.03 96.62 257.03 96.62 296.87"/>
    <path d="M158.24,275.35l-13.65-2.78c-1.03-.2-1.28-.25-1.28-1.89v-5.29c0-1.73,1.29-2.74,3.45-2.74h16.83v-5.61h-16.83c-5.25,0-9.07,3.51-9.07,8.36v5.29c0,4.21,1.9,6.63,5.8,7.41l13.6,2.77c1.32.29,1.98.42,1.98,3.25v3.74c0,2.14-1.52,3.4-4.04,3.4h-18.57v5.61h18.57c5.68,0,9.65-3.71,9.65-9.02v-3.74c0-5.03-2.11-7.9-6.45-8.77h0Z"/>
  </g>
</svg>