<?xml version="1.0" encoding="UTF-8"?>
<svg id="Layer_1" xmlns="http://www.w3.org/2000/svg" viewBox="0 0 496.06 170.08">
  <g>
    <path d="M207.92,51.46v10.6c0,3.01-2.6,5.45-5.84,5.45h-29.24v45.88h-45.29V0h45.29v46.01h29.24c3.23,0,5.84,2.45,5.84,5.45Z"/>
    <path d="M188.02,0h52.93v31.7c0,2.1-1.71,3.8-3.8,3.8h-16.74c-17.88,0-32.38-14.51-32.38-32.38V0Z"/>
    <path d="M188.03,110.27c0-17.87,14.5-32.38,32.38-32.38h16.74c2.09,0,3.8,1.7,3.8,3.8v31.7h-52.92v-3.12Z"/>
  </g>
  <g>
    <rect y="0" width="45.29" height="113.39"/>
    <path d="M97.3,55.98c10.72,4.39,16.08,12.24,16.08,23.56,0,10.38-3.68,18.55-11.02,24.48-7.69,6.22-18.61,9.33-32.74,9.33h-9.69V.03h8.43c13.8,0,24.35,3.41,31.65,10.24,6.67,6.22,10.02,14.28,10.02,24.19s-4.15,17.09-12.46,21.52c0,0-.26,0-.26,0Z"/>
  </g>
  <g>
    <path d="M314.36,113.39l41.63-41.63c4.61-4.61,12.51-1.35,12.51,5.18v36.45h-54.14Z"/>
    <path d="M309.26,0l-41.63,41.63c-4.61,4.61-12.51,1.35-12.51-5.18V0h54.14Z"/>
    <g>
      <path d="M342.56,0l-87.44,87.44h0c0-7.13,2.83-13.97,7.88-19.02l60.54-60.55C328.58,2.83,335.42,0,342.55,0h0Z"/>
      <path d="M368.5,25.93v.02c0,7.13-2.83,13.98-7.88,19.02l-60.55,60.54c-5.04,5.04-11.89,7.88-19.02,7.88h0l87.44-87.45Z"/>
      <polygon points="368.5 4.93 368.5 16.07 271.2 113.39 260.05 113.39 368.5 4.93"/>
      <polygon points="363.57 0 255.12 108.46 255.12 97.31 352.43 0 363.57 0"/>
    </g>
  </g>
  <g>
    <path d="M432.01,113.39h-12.4c-20.4,0-36.93-16.53-36.93-36.92V0h49.33v113.39Z"/>
    <path d="M446.76,170.08h0c27.22,0,49.3-22.08,49.3-49.3V.03h-49.3v170.05Z"/>
  </g>
  <g>
    <path d="M152.18,137.71v23.41c0,8.96-9.28,8.96-12.34,8.96s-12.28,0-12.28-8.96v-23.41h4.59v23.41c0,1.73,0,4.37,7.69,4.37s7.75-2.73,7.75-4.37v-23.41h4.59Z"/>
    <path d="M190.56,158.41v11.06h-4.59v-11.06c0-1.33,0-2.47-3.64-2.47h-11.74v13.53h-4.59v-31.75h4.59v13.62h7.74l5.9-13.62h5.02l-5.91,13.65c4.82.28,7.25,2.65,7.25,7.03h-.02Z"/>
    <path d="M228.63,137.71v23.41c0,8.96-9.28,8.96-12.34,8.96s-12.28,0-12.28-8.96v-23.41h4.59v23.41c0,1.73,0,4.37,7.69,4.37s7.75-2.73,7.75-4.37v-23.41h4.59Z"/>
    <polygon points="265.36 154.77 265.36 169.47 242.43 169.47 242.43 137.71 247.03 137.71 247.03 164.87 260.77 164.87 260.77 154.77 265.36 154.77"/>
    <polygon points="282.63 142.31 282.63 151.09 295.24 151.09 295.24 155.68 282.63 155.68 282.63 164.87 299.38 164.87 299.38 169.47 278.03 169.47 278.03 137.71 299.38 137.71 299.38 142.31 282.63 142.31"/>
    <polygon points="334.48 154.77 334.48 169.47 311.54 169.47 311.54 137.71 316.14 137.71 316.14 164.87 329.88 164.87 329.88 154.77 334.48 154.77"/>
    <polygon points="351.75 142.31 351.75 151.09 364.34 151.09 364.34 155.68 351.75 155.68 351.75 164.87 368.5 164.87 368.5 169.47 347.15 169.47 347.15 137.71 368.5 137.71 368.5 142.31 351.75 142.31"/>
  </g>
</svg>