<?xml version="1.0" encoding="UTF-8"?>
<svg id="Layer_1" data-name="Layer 1" xmlns="http://www.w3.org/2000/svg" viewBox="0 0 528.84 212.52">
  <defs>
    <style>
      .cls-1 {
        stroke: #231f20;
        stroke-miterlimit: 10;
        stroke-width: 3px;
      }
    </style>
  </defs>
  <g>
    <path class="cls-1" d="M165.46,182.32v21.68c0,3.9-2.18,6.5-9.93,6.5s-9.88-2.6-9.88-6.5v-21.68h-.52v21.68c0,4.21,2.24,7.02,10.4,7.02s10.45-2.81,10.45-7.02v-21.68h-.52Z"/>
    <path class="cls-1" d="M198.64,196.15h-2.13l5.98-13.83h-.57l-5.98,13.83h-11.29v-13.83h-.52v28.08h.52v-13.73h13.99c3.85,0,5.77,1.25,5.77,4.58v9.15h.52v-9.15c0-3.64-2.03-5.1-6.29-5.1Z"/>
    <path class="cls-1" d="M243.05,182.32v21.68c0,3.9-2.19,6.5-9.94,6.5s-9.88-2.6-9.88-6.5v-21.68h-.52v21.68c0,4.21,2.24,7.02,10.4,7.02s10.46-2.81,10.46-7.02v-21.68h-.52Z"/>
    <path class="cls-1" d="M280.33,199.63v10.25h-18.1v-27.56h-.52v28.08h19.14v-10.77h-.52Z"/>
    <path class="cls-1" d="M315.38,182.84v-.52h-17.53v28.08h17.53v-.52h-17.01v-13.47h12.8v-.52h-12.8v-13.05h17.01Z"/>
    <path class="cls-1" d="M350.48,199.63v10.25h-18.1v-27.56h-.52v28.08h19.14v-10.77h-.52Z"/>
    <path class="cls-1" d="M385.53,182.84v-.52h-17.53v28.08h17.53v-.52h-17.01v-13.47h12.79v-.52h-12.79v-13.05h17.01Z"/>
  </g>
  <path d="M98.5,62.37c8.08-3.43,11.91-10.5,11.91-21.8v-9.69c0-21.19-12.31-30.88-38.75-30.88H7.27C2.22,0,0,2.22,0,7.27v130.79c0,5.05,2.22,7.27,7.27,7.27h77.51c26.84,0,39.15-10.5,39.15-33.1v-18.57c0-19.78-8.07-29.68-25.43-31.29ZM39.93,110.34c0,3.31-2.68,6-6,6s-6-2.69-6-6V35c0-3.31,2.69-6,6-6s6,2.69,6,6v75.34ZM65.23,110.34c0,3.31-2.68,6-6,6s-6-2.69-6-6V35c0-3.31,2.69-6,6-6s6,2.69,6,6v75.34ZM89.93,110.34c0,3.31-2.68,6-6,6s-6-2.69-6-6v-29.3c0-3.31,2.69-6,6-6s6,2.69,6,6v29.3Z"/>
  <path d="M247.26,38.15c5.05,0,7.27-2.22,7.27-7.26V7.27c0-5.04-2.22-7.26-7.27-7.26h-93.65c-5.05,0-7.27,2.22-7.27,7.26v130.79c0,5.05,2.22,7.27,7.27,7.27h93.65c5.05,0,7.27-2.22,7.27-7.27v-23.61c0-5.05-2.22-7.27-7.27-7.27h-55.71v-17.36h39.36c5.05,0,7.27-2.22,7.27-7.26v-21.6c0-5.05-2.22-7.27-7.27-7.27h-39.36v-15.54h55.71Z"/>
  <path d="M381.08,106.78h-48.24l46.83-56.72c3.63-3.83,5.05-7.26,5.05-12.71V7.27c0-5.04-2.22-7.26-7.27-7.26h-92.85c-5.04,0-7.26,2.22-7.26,7.26v24.42c0,5.05,2.22,7.27,7.26,7.27h43.2l-49.05,59.54c-3.63,3.84-5.05,7.27-5.05,12.52v27.04c0,5.05,2.22,7.27,7.27,7.27h100.11c5.05,0,7.27-2.22,7.27-7.27v-24.01c0-5.05-2.22-7.27-7.27-7.27Z"/>
  <path d="M528.84,7.28v38.75c0,12.51-1.62,16.55-7.67,24.83l-30.68,41.57v25.64c0,5.04-2.22,7.26-7.27,7.26h-32.7c-5.25,0-7.26-2.22-7.26-7.26v-25.84l-30.89-41.37c-6.25-8.28-7.67-12.32-7.67-24.83V7.28c0-5.05,2.22-7.27,7.27-7.27h23.8v48.91c0,3.31,2.68,6,6,6s6-2.69,6-6V.01h13v72.66c0,3.31,2.68,6,6,6s6-2.69,6-6V.01h13v48.91c0,3.31,2.68,6,6,6s6-2.69,6-6V.01h23.8c5.05,0,7.27,2.22,7.27,7.27Z"/>
</svg>