<?xml version="1.0" encoding="UTF-8"?>
<svg id="Layer_1" data-name="Layer 1" xmlns="http://www.w3.org/2000/svg" viewBox="0 0 503.44 279.05">
  <defs>
    <style>
      .cls-1 {
        fill: none;
        stroke: #000;
        stroke-linecap: round;
        stroke-miterlimit: 10;
        stroke-width: 7px;
      }
    </style>
  </defs>
  <g>
    <path d="M157.8,246.59v23.47c0,8.99-9.32,8.99-12.38,8.99s-12.33,0-12.33-8.99v-23.47h4.61v23.47c0,1.74,0,4.38,7.72,4.38s7.77-2.74,7.77-4.38v-23.47h4.61Z"/>
    <path d="M196.29,267.34v11.1h-4.61v-11.1c0-1.33,0-2.48-3.65-2.48h-11.78v13.57h-4.61v-31.85h4.61v13.67h7.76l5.92-13.67h5.03l-5.93,13.7c4.83.28,7.27,2.65,7.27,7.05Z"/>
    <path d="M234.47,246.59v23.47c0,8.99-9.32,8.99-12.38,8.99s-12.33,0-12.33-8.99v-23.47h4.61v23.47c0,1.74,0,4.38,7.72,4.38s7.77-2.74,7.77-4.38v-23.47h4.61Z"/>
    <polygon points="271.33 263.7 271.33 278.44 248.31 278.44 248.31 246.59 252.93 246.59 252.93 273.82 266.72 273.82 266.72 263.7 271.33 263.7"/>
    <polygon points="288.65 251.2 288.65 260 301.29 260 301.29 264.61 288.65 264.61 288.65 273.82 305.45 273.82 305.45 278.44 284.03 278.44 284.03 246.59 305.45 246.59 305.45 251.2 288.65 251.2"/>
    <polygon points="340.65 263.7 340.65 278.44 317.65 278.44 317.65 246.59 322.26 246.59 322.26 273.82 336.04 273.82 336.04 263.7 340.65 263.7"/>
    <polygon points="357.97 251.2 357.97 260 370.62 260 370.62 264.61 357.97 264.61 357.97 273.82 374.78 273.82 374.78 278.44 353.37 278.44 353.37 246.59 374.78 246.59 374.78 251.2 357.97 251.2"/>
  </g>
  <path d="M0,104.86h45.93v116.02H0v-116.02ZM96.04,162.23c10.87,4.5,16.31,12.55,16.31,24.16,0,10.64-3.73,19.01-11.18,25.1-7.8,6.38-18.87,9.56-33.21,9.56h-7.85v-116.19h6.57c14,0,24.7,3.5,32.1,10.5,6.77,6.38,10.16,14.64,10.16,24.8s-4.21,17.52-12.64,22.07h-.26Z"/>
  <path d="M133.09,104.86h45.93v46.78h29.06c2.86,0,5.18,2.32,5.18,5.18v11.93c0,2.86-2.32,5.18-5.18,5.18h-29.06v46.95h-45.93v-116.02ZM193.71,212.77c0-11.78,6.83-19.78,20.49-23.99,5.24-1.59,11.98-2.39,20.23-2.39h6.74v34.66h-47.47v-8.28ZM193.79,104.86h47.38v32.27h-8.88c-15.42,0-25.95-2.42-31.59-7.26-4.61-3.98-6.92-10.42-6.92-19.29v-5.72Z"/>
  <path d="M261.32,198.6c0-5.18,2.16-10.7,6.49-16.56l3.5-4.61,61.64-72.57h41.83v24.59c0,6.2-3.44,13.57-10.33,22.11l-62.83,69.49h-40.29v-22.45ZM261.32,119.88c0-7.34.91-12.35,2.73-15.03h52.25l-43.88,46.7h-2.56c-5.69-3.3-8.54-13.86-8.54-31.67ZM374.78,205.94c0,7.46-.85,12.49-2.56,15.11h-51.48l45.59-49.34c4.72,2.68,7.46,9.05,8.2,19.12.23,3.13.34,6.43.34,9.9l-.08,5.21Z"/>
  <path d="M394.67,104.86h47.21v116.19h-7.68c-20.95,0-33.44-7.11-37.48-21.34-1.37-4.61-2.05-9.93-2.05-15.96v-78.88ZM503.44,238.06c0,26.92-13.52,40.38-40.55,40.38h-5.29V104.86h45.84v133.2Z"/>
  <line class="cls-1" x1="203.96" y1="24.03" x2="203.96" y2="78.26"/>
  <line class="cls-1" x1="234.91" y1="3.5" x2="234.91" y2="78.26"/>
  <line class="cls-1" x1="265.85" y1="3.5" x2="265.85" y2="78.26"/>
  <line class="cls-1" x1="296.8" y1="24.03" x2="296.8" y2="78.26"/>
</svg>