<?xml version="1.0" encoding="UTF-8"?>
<svg id="Layer_1" data-name="Layer 1" xmlns="http://www.w3.org/2000/svg" viewBox="0 0 528.08 172.91">
  <g>
    <path d="M155.04,140v23.8c0,9.11-9.44,9.11-12.55,9.11s-12.49,0-12.49-9.11v-23.8h4.67v23.8c0,1.76,0,4.44,7.82,4.44s7.88-2.78,7.88-4.44v-23.8h4.67Z"/>
    <path d="M194.06,161.04v11.25h-4.67v-11.25c0-1.35,0-2.51-3.7-2.51h-11.94v13.76h-4.67v-32.28h4.67v13.85h7.87l6-13.85h5.1l-6.01,13.88c4.9.28,7.37,2.69,7.37,7.15Z"/>
    <path d="M232.77,140v23.8c0,9.11-9.44,9.11-12.55,9.11s-12.49,0-12.49-9.11v-23.8h4.67v23.8c0,1.76,0,4.44,7.82,4.44s7.88-2.78,7.88-4.44v-23.8h4.67Z"/>
    <polygon points="270.12 157.34 270.12 172.29 246.8 172.29 246.8 140 251.48 140 251.48 167.61 265.45 167.61 265.45 157.34 270.12 157.34"/>
    <polygon points="287.68 144.67 287.68 153.6 300.5 153.6 300.5 158.27 287.68 158.27 287.68 167.61 304.71 167.61 304.71 172.29 283 172.29 283 140 304.71 140 304.71 144.67 287.68 144.67"/>
    <polygon points="340.4 157.34 340.4 172.29 317.08 172.29 317.08 140 321.75 140 321.75 167.61 335.73 167.61 335.73 157.34 340.4 157.34"/>
    <polygon points="357.96 144.67 357.96 153.6 370.77 153.6 370.77 158.27 357.96 158.27 357.96 167.61 375 167.61 375 172.29 353.29 172.29 353.29 140 375 140 375 144.67 357.96 144.67"/>
  </g>
  <g>
    <path d="M440.03,115h-12.57c-20.68,0-37.45-16.77-37.45-37.45V0S440.03,0,440.03,0v115Z"/>
    <path d="M455,172.91h0c27.61,0,50-22.39,50-50V.03s-50,0-50,0v172.88Z"/>
  </g>
  <polygon points="193.7 0 193.7 .03 193.67 0 193.7 0"/>
  <polygon points="193.7 114.97 193.7 115 193.67 115 193.7 114.97"/>
  <g>
    <rect y="0" width="45.93" height="115"/>
    <path d="M98.69,56.78c10.87,4.45,16.31,12.41,16.31,23.9,0,10.53-3.73,18.81-11.18,24.83-7.8,6.31-18.87,9.46-33.21,9.46h-9.83V.03h8.55c14,0,24.7,3.46,32.1,10.39,6.77,6.31,10.16,14.48,10.16,24.53s-4.21,17.33-12.64,21.83h-.26Z"/>
  </g>
  <path d="M320.87,115l41.63-41.63c4.61-4.61,12.51-1.35,12.51,5.18v36.45h-54.13Z"/>
  <path d="M314.13,0l-41.63,41.63c-4.61,4.61-12.51,1.35-12.51-5.18V0h54.13Z"/>
  <g>
    <path d="M211.51,52.19v10.75c0,3.05-2.64,5.53-5.92,5.53h-29.66v46.53h-45.93V0h45.93v46.66h29.66c3.28,0,5.92,2.48,5.92,5.53Z"/>
    <path d="M191.32,0h53.68v32.15c0,2.13-1.73,3.85-3.85,3.85h-16.98c-18.13,0-32.84-14.72-32.84-32.84V0h0Z"/>
    <path d="M224.16,79h16.98c2.13,0,3.85,1.73,3.85,3.85v32.15h-53.68v-3.16c0-18.13,14.72-32.84,32.84-32.84Z"/>
  </g>
  <polygon points="528.08 103.39 528.08 103.43 528.05 103.39 528.08 103.39"/>
  <path d="M348.71,0l-88.71,88.71v-4.87c0-4.12,1.64-8.08,4.55-10.99L332.83,4.55c2.92-2.92,6.87-4.55,10.99-4.55h4.88Z"/>
  <path d="M375,26.3v4.87c0,4.12-1.64,8.08-4.55,10.99l-68.28,68.28c-2.92,2.92-6.87,4.55-10.99,4.55h-4.87l88.7-88.7Z"/>
  <polygon points="375 5 375 16.31 276.31 115 265 115 375 5"/>
  <polygon points="370.01 0 260 110.01 260 98.7 358.69 0 370.01 0"/>
</svg>