<?xml version="1.0" encoding="UTF-8"?>
<svg id="Layer_1" data-name="Layer 1" xmlns="http://www.w3.org/2000/svg" viewBox="0 0 268.09 302.91">
  <g>
    <path d="M25.25,291.71c0,2.09,0,5.59-9.85,5.59s-9.79-3.37-9.79-5.59v-29.41H0v29.41c0,11.2,11.59,11.2,15.4,11.2s15.46,0,15.46-11.2v-29.41h-5.61v29.41Z"/>
    <path d="M70.06,279.5l7.44-17.2h-6.12l-7.44,17.18h-9.9v-17.18h-5.6v39.84h5.6v-17.05h14.89c4.69,0,4.69,1.55,4.69,3.19v13.86h5.61v-13.86c0-5.51-3.09-8.47-9.18-8.78Z"/>
    <polygon points="96.62 302.14 123.35 302.14 123.35 296.53 102.23 296.53 102.23 284.77 118.12 284.77 118.12 279.15 102.23 279.15 102.23 267.91 123.35 267.91 123.35 262.3 96.62 262.3 96.62 302.14"/>
    <path d="M158.24,280.62l-13.65-2.78c-1.03-.2-1.28-.25-1.28-1.89v-5.29c0-1.73,1.29-2.74,3.45-2.74h16.83v-5.61h-16.83c-5.25,0-9.07,3.51-9.07,8.36v5.29c0,4.21,1.9,6.63,5.8,7.41l13.6,2.77c1.32.29,1.98.42,1.98,3.25v3.74c0,2.14-1.52,3.4-4.04,3.4h-18.57v5.61h18.57c5.68,0,9.65-3.71,9.65-9.02v-3.74c0-5.03-2.11-7.9-6.45-8.77Z"/>
  </g>
  <g>
    <path d="M180.03,245h-12.57c-20.68,0-37.45-16.77-37.45-37.45v-77.55s50.03,0,50.03,0v115Z"/>
    <path d="M195,302.91h0c27.61,0,50-22.39,50-50v-122.88s-50,0-50,0v172.88Z"/>
  </g>
  <polygon points="193.7 0 193.7 .03 193.67 0 193.7 0"/>
  <polygon points="193.7 114.97 193.7 115 193.67 115 193.7 114.97"/>
  <g>
    <rect width="45.93" height="115"/>
    <path d="M98.69,56.78c10.87,4.45,16.31,12.41,16.31,23.9,0,10.53-3.73,18.81-11.18,24.83-7.8,6.31-18.87,9.46-33.21,9.46h-9.83V.03h8.55c14,0,24.7,3.46,32.1,10.39,6.77,6.31,10.16,14.48,10.16,24.53s-4.21,17.33-12.64,21.83h-.26Z"/>
  </g>
  <path d="M60.87,245l41.63-41.63c4.61-4.61,12.51-1.35,12.51,5.18v36.45h-54.13Z"/>
  <path d="M54.13,130l-41.63,41.63C7.89,176.24,0,172.98,0,166.45v-36.45h54.13Z"/>
  <g>
    <path d="M211.51,52.19v10.75c0,3.05-2.64,5.53-5.92,5.53h-29.66v46.53h-45.93V0h45.93v46.66h29.66c3.28,0,5.92,2.48,5.92,5.53Z"/>
    <path d="M191.32,0h53.68v32.15c0,2.13-1.73,3.85-3.85,3.85h-16.98c-18.13,0-32.84-14.72-32.84-32.84V0h0Z"/>
    <path d="M224.16,79h16.98c2.13,0,3.85,1.73,3.85,3.85v32.15h-53.68v-3.16c0-18.13,14.72-32.84,32.84-32.84Z"/>
  </g>
  <polygon points="268.09 233.4 268.09 233.43 268.06 233.4 268.09 233.4"/>
  <path d="M88.71,130L0,218.71v-4.87c0-4.12,1.64-8.08,4.55-10.99l68.28-68.29c2.92-2.92,6.87-4.55,10.99-4.55h4.88Z"/>
  <path d="M115,156.3v4.87c0,4.12-1.64,8.08-4.55,10.99l-68.28,68.28c-2.92,2.92-6.87,4.55-10.99,4.55h-4.87l88.7-88.7Z"/>
  <polygon points="115 135 115 146.31 16.31 245 5 245 115 135"/>
  <polygon points="110.01 130 0 240.01 0 228.7 98.69 130 110.01 130"/>
</svg>