<?xml version="1.0" encoding="UTF-8"?>
<svg id="Layer_1" data-name="Layer 1" xmlns="http://www.w3.org/2000/svg" viewBox="0 0 245 302.91">
  <path d="M25.25,291.71c0,2.09,0,5.59-9.85,5.59s-9.79-3.37-9.79-5.59v-29.41H0v29.41c0,11.2,11.59,11.2,15.4,11.2s15.46,0,15.46-11.2v-29.41h-5.61v29.41Z"/>
  <path d="M70.06,279.5l7.44-17.2h-6.12l-7.44,17.18h-9.9v-17.18h-5.6v39.84h5.6v-17.05h14.89c4.69,0,4.69,1.55,4.69,3.19v13.86h5.61v-13.86c0-5.51-3.09-8.47-9.18-8.78Z"/>
  <polygon points="96.62 302.14 123.35 302.14 123.35 296.53 102.23 296.53 102.23 284.76 118.12 284.76 118.12 279.15 102.23 279.15 102.23 267.91 123.35 267.91 123.35 262.3 96.62 262.3 96.62 302.14"/>
  <path d="M158.23,280.62l-13.65-2.78c-1.03-.2-1.28-.25-1.28-1.89v-5.29c0-1.73,1.29-2.74,3.45-2.74h16.83v-5.61h-16.83c-5.25,0-9.07,3.51-9.07,8.36v5.29c0,4.21,1.9,6.63,5.8,7.41l13.6,2.77c1.32.29,1.98.42,1.98,3.25v3.74c0,2.14-1.52,3.4-4.04,3.4h-18.57v5.61h18.57c5.68,0,9.65-3.71,9.65-9.02v-3.74c0-5.03-2.11-7.9-6.45-8.77Z"/>
  <rect width="45.93" height="115"/>
  <path d="M103.82,105.51c7.46-6.02,11.18-14.3,11.18-24.83,0-11.49-5.44-19.45-16.31-23.9h.26c8.42-4.5,12.64-11.78,12.64-21.83s-3.39-18.23-10.16-24.53C94.03,3.49,83.33.03,69.33.03h-8.55v114.94h9.83c14.34,0,25.41-3.15,33.21-9.46Z"/>
  <path d="M130,207.55c0,20.68,16.77,37.45,37.45,37.45h12.57v-115h-50.03v77.55Z"/>
  <path d="M195,130.03v172.88c27.61,0,50-22.39,50-50v-122.88h-50Z"/>
  <path d="M102.49,203.38l-41.63,41.63h54.13v-36.45c0-6.53-7.89-9.79-12.51-5.18Z"/>
  <path d="M0,166.45c0,6.53,7.89,9.79,12.51,5.18l41.63-41.63H0v36.45Z"/>
  <path d="M88.27,130c-6.43,0-12.59,2.55-17.14,7.1L7.1,201.12c-4.55,4.55-7.1,10.71-7.1,17.14v.02l88.28-88.28h0Z"/>
  <path d="M115,156.73h0S26.72,245,26.72,245c6.43,0,12.59-2.55,17.14-7.1l64.04-64.03c4.55-4.55,7.1-10.71,7.1-17.14Z"/>
  <polygon points="15.6 245 115 145.6 115 135.56 5.56 245 15.6 245"/>
  <polygon points="99.39 130 0 229.4 0 239.44 109.44 130 99.39 130"/>
  <path d="M175.93,68.47h29.66c3.28,0,5.92-2.48,5.92-5.53v-10.75c0-3.05-2.64-5.53-5.92-5.53h-29.66V0h-45.93v115h45.93v-46.53Z"/>
  <path d="M221.46,37.71h17.15c3.52,0,6.38-2.86,6.38-6.38V0h-53.68v7.57c0,16.65,13.5,30.14,30.14,30.14Z"/>
  <path d="M245,115v-31.33c0-3.52-2.86-6.38-6.38-6.38h-17.15c-16.65,0-30.14,13.5-30.14,30.14v7.57h2.34,0s.03,0,.03,0h0s51.3,0,51.3,0Z"/>
</svg>