<?xml version="1.0" encoding="UTF-8"?>
<svg id="Layer_1" data-name="Layer 1" xmlns="http://www.w3.org/2000/svg" viewBox="0 0 505 172.91">
  <g>
    <path d="M155.04,140v23.8c0,9.11-9.44,9.11-12.55,9.11s-12.49,0-12.49-9.11v-23.8h4.67v23.8c0,1.76,0,4.44,7.82,4.44s7.88-2.78,7.88-4.44v-23.8h4.67Z"/>
    <path d="M194.06,161.04v11.25h-4.67v-11.25c0-1.35,0-2.51-3.7-2.51h-11.94v13.76h-4.67v-32.28h4.67v13.85h7.87l6-13.85h5.1l-6.01,13.88c4.9.28,7.37,2.69,7.37,7.15Z"/>
    <path d="M232.77,140v23.8c0,9.11-9.44,9.11-12.55,9.11s-12.49,0-12.49-9.11v-23.8h4.67v23.8c0,1.76,0,4.44,7.82,4.44s7.88-2.78,7.88-4.44v-23.8h4.67Z"/>
    <polygon points="270.12 157.34 270.12 172.29 246.8 172.29 246.8 140 251.48 140 251.48 167.61 265.45 167.61 265.45 157.34 270.12 157.34"/>
    <polygon points="287.68 144.67 287.68 153.6 300.5 153.6 300.5 158.27 287.68 158.27 287.68 167.61 304.71 167.61 304.71 172.29 283 172.29 283 140 304.71 140 304.71 144.67 287.68 144.67"/>
    <polygon points="340.4 157.34 340.4 172.29 317.08 172.29 317.08 140 321.75 140 321.75 167.61 335.73 167.61 335.73 157.34 340.4 157.34"/>
    <polygon points="357.96 144.67 357.96 153.6 370.77 153.6 370.77 158.27 357.96 158.27 357.96 167.61 375 167.61 375 172.29 353.29 172.29 353.29 140 375 140 375 144.67 357.96 144.67"/>
  </g>
  <g>
    <path d="M440.03,115h-12.57c-20.68,0-37.45-16.77-37.45-37.45V0s50.03,0,50.03,0v115Z"/>
    <path d="M455,172.91h0c27.61,0,50-22.39,50-50V.03s-50,0-50,0v172.88Z"/>
  </g>
  <polygon points="193.7 0 193.7 .03 193.67 0 193.7 0"/>
  <polygon points="193.7 114.97 193.7 115 193.67 115 193.7 114.97"/>
  <g>
    <rect width="45.93" height="115"/>
    <path d="M98.69,56.78c10.87,4.45,16.31,12.41,16.31,23.9,0,10.53-3.73,18.81-11.18,24.83-7.8,6.31-18.87,9.46-33.21,9.46h-9.83V.03h8.55c14,0,24.7,3.46,32.1,10.39,6.77,6.31,10.16,14.48,10.16,24.53s-4.21,17.33-12.64,21.83h-.26Z"/>
  </g>
  <g>
    <path d="M320.87,115l41.63-41.63c4.61-4.61,12.51-1.35,12.51,5.18v36.45h-54.13Z"/>
    <path d="M314.13,0l-41.63,41.63c-4.61,4.61-12.51,1.35-12.51-5.18V0h54.13Z"/>
    <path d="M348.28,0l-88.28,88.28v-.02c0-6.43,2.55-12.6,7.1-17.14L331.13,7.1C335.68,2.56,341.84,0,348.27,0h.01Z"/>
    <path d="M375,26.72h0c0,6.44-2.55,12.6-7.1,17.15l-64.04,64.03c-4.55,4.55-10.71,7.1-17.14,7.1h0l88.28-88.28Z"/>
    <polygon points="375 5.56 375 15.6 275.6 115 265.56 115 375 5.56"/>
    <polygon points="369.44 0 260 109.44 260 99.4 359.39 0 369.44 0"/>
  </g>
  <g>
    <path d="M211.51,52.19v10.75c0,3.05-2.64,5.53-5.92,5.53h-29.66v46.53h-45.93V0h45.93v46.66h29.66c3.28,0,5.92,2.48,5.92,5.53Z"/>
    <path d="M191.32,0h53.68v31.33c0,3.52-2.86,6.38-6.38,6.38h-17.15c-16.64,0-30.14-13.51-30.14-30.14V0h0Z"/>
    <path d="M221.46,77.29h17.15c3.52,0,6.38,2.86,6.38,6.38v31.33h-53.68v-7.57c0-16.64,13.51-30.14,30.14-30.14Z"/>
  </g>
</svg>