<?xml version="1.0" encoding="UTF-8"?>
<svg xmlns="http://www.w3.org/2000/svg" version="1.1" viewBox="0 0 64 64">
  <!-- Generator: Adobe Illustrator 28.7.4, SVG Export Plug-In . SVG Version: 1.2.0 Build 166)  -->
  <g>
    <g id="Layer_1">
      <path d="M33.4,64l23.5-23.5c2.6-2.6,7.1-.8,7.1,2.9v20.6h-30.6Z"/>
      <path d="M30.6,0L7.1,23.5c-2.6,2.6-7.1.8-7.1-2.9V0h30.6Z"/>
      <g>
        <path d="M49.4,0L0,49.4h0c0-4,1.6-7.9,4.4-10.7L38.6,4.4c2.8-2.8,6.7-4.4,10.7-4.4h0Z"/>
        <path d="M64,14.6h0c0,4-1.6,7.9-4.5,10.7L25.4,59.5c-2.9,2.8-6.7,4.5-10.7,4.5h0L64,14.6Z"/>
        <polygon points="64 2.8 64 9.1 9.1 64 2.8 64 64 2.8"/>
        <polygon points="61.2 0 0 61.2 0 54.9 54.9 0 61.2 0"/>
      </g>
    </g>
  </g>
</svg>