<?xml version="1.0" encoding="UTF-8"?>
<svg xmlns="http://www.w3.org/2000/svg" version="1.1" viewBox="0 0 1920 1080">
  <!-- Generator: Adobe Illustrator 28.7.4, SVG Export Plug-In . SVG Version: 1.2.0 Build 166)  -->
  <g>
    <g id="Layer_1">
      <g>
        <path d="M961.8,596.8l23.5-23.5c2.6-2.6,7.1-.8,7.1,2.9v20.6h-30.6Z"/>
        <path d="M958.9,532.8l-23.5,23.5c-2.6,2.6-7.1.8-7.1-2.9v-20.6h30.6Z"/>
        <g>
          <path d="M977.7,532.8l-49.4,49.4h0c0-4,1.6-7.9,4.4-10.7l34.2-34.2c2.8-2.8,6.7-4.4,10.7-4.4h0Z"/>
          <path d="M992.4,547.5h0c0,4-1.6,7.9-4.4,10.7l-34.2,34.2c-2.8,2.8-6.7,4.4-10.7,4.4h0l49.4-49.4Z"/>
          <polygon points="992.4 535.6 992.4 541.9 937.5 596.8 931.2 596.8 992.4 535.6"/>
          <polygon points="989.6 532.8 928.4 594 928.4 587.7 983.3 532.8 989.6 532.8"/>
        </g>
      </g>
    </g>
  </g>
</svg>